<svg version="1.1" id="Layer_1" xmlns="http://www.w3.org/2000/svg" xmlns:xlink="http://www.w3.org/1999/xlink" viewBox="0 0 433.48 433.48" xml:space="preserve" fill="#000000"><g id="SVGRepo_bgCarrier" stroke-width="0"></g><g id="SVGRepo_tracerCarrier" stroke-linecap="round" stroke-linejoin="round"></g><g id="SVGRepo_iconCarrier"> <g> <path style="fill:#e164f2;" d="M318.735,53.2v224.12c0,12.94-10.49,23.43-23.42,23.43h-157.14c-12.94,0-23.43-10.49-23.43-23.43 V53.2c0-29.38,23.82-53.2,53.21-53.2h97.58C294.915,0,318.735,23.82,318.735,53.2z"></path> <path style="fill:#F9DB87;" d="M245.998,300.75v103.48c0,16.16-13.1,29.25-29.25,29.25c-16.16,0-29.25-13.09-29.25-29.25V300.75 H245.998z"></path> <path style="fill:#E5B94C;" d="M245.998,300.75v103.48c0,16.16-13.1,29.25-29.25,29.25V300.75H245.998z"></path> <path style="fill:#d345ad;" d="M318.735,53.2v224.12c0,12.94-10.49,23.43-23.42,23.43h-78.57V0h48.79 C294.915,0,318.735,23.82,318.735,53.2z"></path> <path style="fill:#bf45a5;" d="M268.49,97.499L268.49,97.499c-9.941,0-17.999,8.058-17.999,17.999V300.75h35.998V115.499 C286.49,105.558,278.431,97.499,268.49,97.499z"></path> <path style="fill:#cf60d7;" d="M182.995,115.5v185.25h-36V115.5c0-9.94,8.06-18,18-18S182.995,105.56,182.995,115.5z"></path> <rect x="187.498" y="300.75" style="fill:#E5B94C;" width="58.5" height="22.9"></rect> <path style="fill:#FFFFFF;" d="M200.655,21.5h-9.601c-3.038,0-5.5-2.462-5.5-5.5s2.462-5.5,5.5-5.5h9.601 c3.038,0,5.5,2.462,5.5,5.5S203.693,21.5,200.655,21.5z"></path> <path style="fill:#FFFFFF;" d="M130.745,86.15c-3.038,0-5.5-2.462-5.5-5.5V53.2c0-23.545,19.16-42.7,42.71-42.7 c3.038,0,5.5,2.462,5.5,5.5s-2.462,5.5-5.5,5.5c-17.485,0-31.71,14.22-31.71,31.7v27.45 C136.245,83.688,133.782,86.15,130.745,86.15z"></path> </g> </g></svg>